<?xml version="1.0" encoding="UTF-8" standalone="no"?>
<svg
   xmlns:dc="http://purl.org/dc/elements/1.1/"
   xmlns:cc="http://creativecommons.org/ns#"
   xmlns:rdf="http://www.w3.org/1999/02/22-rdf-syntax-ns#"
   xmlns:svg="http://www.w3.org/2000/svg"
   xmlns="http://www.w3.org/2000/svg"
   xmlns:sodipodi="http://sodipodi.sourceforge.net/DTD/sodipodi-0.dtd"
   xmlns:inkscape="http://www.inkscape.org/namespaces/inkscape"
   width="512"
   height="512"
   enable-background="new"
   version="1.0"
   id="svg25"
   sodipodi:docname="reboot-windows.svg"
   inkscape:version="1.0.1 (3bc2e813f5, 2020-09-07)">
  <metadata
     id="metadata29">
    <rdf:RDF>
      <cc:Work
         rdf:about="">
        <dc:format>image/svg+xml</dc:format>
        <dc:type
           rdf:resource="http://purl.org/dc/dcmitype/StillImage" />
        <dc:title></dc:title>
      </cc:Work>
    </rdf:RDF>
  </metadata>
  <sodipodi:namedview
     pagecolor="#ffffff"
     bordercolor="#666666"
     borderopacity="1"
     objecttolerance="10"
     gridtolerance="10"
     guidetolerance="10"
     inkscape:pageopacity="0"
     inkscape:pageshadow="2"
     inkscape:window-width="1920"
     inkscape:window-height="1021"
     id="namedview27"
     showgrid="false"
     inkscape:zoom="0.59593081"
     inkscape:cx="47.340791"
     inkscape:cy="256.27828"
     inkscape:window-x="0"
     inkscape:window-y="27"
     inkscape:window-maximized="1"
     inkscape:current-layer="g21"
     inkscape:document-rotation="0" />
  <defs
     id="defs5">
    <filter
       id="a"
       x="-.024"
       y="-.024"
       width="1.048"
       height="1.048"
       color-interpolation-filters="sRGB">
      <feGaussianBlur
         stdDeviation="4.48"
         id="feGaussianBlur2" />
    </filter>
    <filter
       inkscape:collect="always"
       style="color-interpolation-filters:sRGB"
       id="filter897"
       x="-0.03152727"
       width="1.0630545"
       y="-0.038533337"
       height="1.0770667">
      <feGaussianBlur
         inkscape:collect="always"
         stdDeviation="2.4644392"
         id="feGaussianBlur899" />
    </filter>
    <clipPath
       clipPathUnits="userSpaceOnUse"
       id="clipPath1184">
      <rect
         transform="matrix(0,-1,-1,0,0,0)"
         x="-346"
         y="-774"
         width="448"
         height="448"
         rx="36"
         ry="36"
         fill="#992b2b"
         id="rect1186"
         style="fill:#00adef;fill-opacity:1" />
    </clipPath>
  </defs>
  <g
     transform="translate(0,212)"
     id="g23">
    <g
       transform="translate(-208,16)"
       id="g21">
      <rect
         transform="matrix(0,-1,-1,0,0,0)"
         x="-254"
         y="-688"
         width="448"
         height="448"
         rx="36"
         ry="36"
         opacity=".2"
         id="rect7" />
      <rect
         transform="matrix(0,-1,-1,0,0,0)"
         x="-256"
         y="-688"
         width="448"
         height="448"
         rx="36"
         ry="36"
         filter="url(#a)"
         opacity=".1"
         id="rect9" />
      <rect
         transform="matrix(0,-1,-1,0,0,0)"
         x="-256"
         y="-688"
         width="448"
         height="448"
         rx="36"
         ry="36"
         filter="url(#a)"
         opacity=".2"
         id="rect11" />
      <rect
         transform="matrix(0,-1,-1,0,0,0)"
         x="-252"
         y="-688"
         width="448"
         height="448"
         rx="36"
         ry="36"
         fill="#992b2b"
         id="rect13"
         style="fill:#00adef;fill-opacity:1" />
      <path
         d="m276-196c-19.944 0-36 16.056-36 36v2c0-19.944 16.056-36 36-36h376c19.944 0 36 16.056 36 36v-2c0-19.944-16.056-36-36-36z"
         fill="#fff"
         opacity=".2"
         id="path15" />
      <g
         transform="matrix(5.5625 -5.5625 5.5625 5.5625 -1916.8 -483.75)"
         enable-background="new"
         id="g19">
        <path
           transform="matrix(.089888 .089888 -.089888 .089888 150.74 193.84)"
           d="m464 94-83.438 83.438 83.438 83.438 83.438-83.438zm-94.562 94.562-83.438 83.438 83.438 83.438 83.438-83.438zm189.12 0-83.438 83.438 83.438 83.438 83.438-83.438zm-94.562 94.562-83.438 83.438 83.438 83.438 83.438-83.438z"
           fill="#fff"
           id="path17" />
      </g>
      <path
         d="M 544.79151,21.43317 H 476.48648 V -4.149241 l -34.02462,34.109881 34.02462,34.10988 v -25.5824 h 68.30503 V 81.12547 H 391.29705 V -21.204175 H 544.79151 V 4.378246 h 17.05495 v -25.582421 c 0,-9.380218 -7.67472,-17.054942 -17.05495,-17.054942 H 391.29705 c -9.38023,0 -17.05495,7.674724 -17.05495,17.054942 V 81.12547 c 0,9.38021 7.67472,17.05493 17.05495,17.05493 h 42.63735 v 17.05495 h 68.21976 V 98.1804 h 42.63735 c 9.38023,0 16.96967,-7.67472 16.96967,-17.05493 V 38.48812 h 0.0853 c 0,-9.38023 -7.67472,-17.05495 -17.05495,-17.05495 z"
         id="path875"
         style="fill:#000000;fill-opacity:1;stroke-width:8.52746;filter:url(#filter897)" />
      <g
         id="g984"
         transform="translate(-86,-94)"
         style="opacity:0.36684703"
         clip-path="url(#clipPath1184)">
        <g
           style="fill:#000000;fill-opacity:1;stroke-width:8.52746"
           id="g981">
          <path
             d="m 626.792,111.433 h -68.306 l 282.843,282.843 h 68.305 z"
             id="path919" />
          <path
             d="M 558.486,111.433 V 85.8508 L 841.329,368.693 v 25.583 z"
             id="path921" />
          <path
             d="m 558.486,85.8508 -34.024,34.1102 282.843,282.842 34.024,-34.11 z"
             id="path923" />
          <path
             d="m 524.462,119.961 34.024,34.11 282.843,282.842 -34.024,-34.11 z"
             id="path925" />
          <path
             d="m 558.486,154.071 v -25.583 l 282.843,282.843 v 25.582 z"
             id="path927" />
          <path
             d="m 558.486,128.488 h 68.306 l 282.842,282.843 h -68.305 z"
             id="path929" />
          <path
             d="m 626.792,128.488 v 42.637 l 282.842,282.843 v -42.637 z"
             id="path931" />
          <path
             d="M 626.792,171.125 H 473.297 L 756.14,453.968 h 153.494 z"
             id="path933" />
          <path
             d="M 473.297,171.125 V 68.7958 L 756.14,351.639 v 102.329 z"
             id="path935" />
          <path
             d="M 473.297,68.7958 H 626.792 L 909.634,351.639 H 756.14 Z"
             id="path937" />
          <path
             d="M 626.792,68.7958 V 94.3782 L 909.634,377.221 v -25.582 z"
             id="path939" />
          <path
             d="m 626.792,94.3782 h 17.054 L 926.689,377.221 h -17.055 z"
             id="path941" />
          <path
             d="M 643.846,94.3782 V 68.7958 L 926.689,351.639 v 25.582 z"
             id="path943" />
          <path
             d="m 643.846,68.7958 c 0,-4.6901 -1.918,-8.9538 -5.009,-12.045 L 921.679,339.593 c 3.091,3.092 5.01,7.355 5.01,12.046 z"
             id="path945" />
          <path
             d="m 638.837,56.7508 c -3.092,-3.0912 -7.355,-5.0099 -12.045,-5.0099 L 909.634,334.584 c 4.69,0 8.954,1.918 12.045,5.009 z"
             id="path947" />
          <path
             d="M 626.792,51.7409 H 473.297 L 756.14,334.584 h 153.494 z"
             id="path949" />
          <path
             d="m 473.297,51.7409 c -9.38,0 -17.055,7.6747 -17.055,17.0549 L 739.085,351.639 c 0,-9.381 7.675,-17.055 17.055,-17.055 z"
             id="path951" />
          <path
             d="M 456.242,68.7958 V 171.125 L 739.085,453.968 V 351.639 Z"
             id="path953" />
          <path
             d="m 456.242,171.125 c 0,4.691 1.919,8.954 5.01,12.046 l 282.843,282.842 c -3.092,-3.091 -5.01,-7.355 -5.01,-12.045 z"
             id="path955" />
          <path
             d="m 461.252,183.171 c 3.091,3.091 7.355,5.009 12.045,5.009 L 756.14,471.023 c -4.69,0 -8.954,-1.919 -12.045,-5.01 z"
             id="path957" />
          <path
             d="m 473.297,188.18 h 42.637 L 798.777,471.023 H 756.14 Z"
             id="path959" />
          <path
             d="m 515.934,188.18 v 17.055 l 282.843,282.843 v -17.055 z"
             id="path961" />
          <path
             d="m 515.934,205.235 h 68.22 l 282.843,282.843 h -68.22 z"
             id="path963" />
          <path
             d="M 584.154,205.235 V 188.18 l 282.843,282.843 v 17.055 z"
             id="path965" />
          <path
             d="m 584.154,188.18 h 42.638 l 282.842,282.843 h -42.637 z"
             id="path967" />
          <path
             d="m 626.792,188.18 c 9.38,0 16.969,-7.674 16.969,-17.055 l 282.843,282.843 c 0,9.38 -7.59,17.055 -16.97,17.055 z"
             id="path969" />
          <path
             d="m 643.761,171.125 v -42.637 l 282.843,282.843 v 42.637 z"
             id="path971" />
          <path
             d="m 643.761,128.488 h 0.085 l 282.843,282.843 h -0.085 z"
             id="path973" />
          <path
             d="m 643.846,128.488 c 0,-4.817 -2.023,-9.184 -5.263,-12.293 l 282.843,282.843 c 3.239,3.109 5.263,7.476 5.263,12.293 z"
             id="path975" />
          <path
             d="m 638.583,116.195 c -3.068,-2.945 -7.228,-4.762 -11.791,-4.762 l 282.842,282.843 c 4.564,0 8.723,1.816 11.792,4.762 z"
             id="path977" />
          <path
             d="m 626.792,111.433 v 0 l 282.842,282.843 v 0 z"
             id="path979" />
        </g>
        <g
           id="g1136">
          <g
             style="fill:#000000;fill-opacity:1;stroke-width:8.52746"
             id="g1133">
            <path
               d="m 626.792,111.433 h -68.306 l 282.843,282.843 h 68.305 z"
               id="path1071" />
            <path
               d="M 558.486,111.433 V 85.8508 L 841.329,368.693 v 25.583 z"
               id="path1073" />
            <path
               d="m 558.486,85.8508 -34.024,34.1102 282.843,282.842 34.024,-34.11 z"
               id="path1075" />
            <path
               d="m 524.462,119.961 34.024,34.11 282.843,282.842 -34.024,-34.11 z"
               id="path1077" />
            <path
               d="m 558.486,154.071 v -25.583 l 282.843,282.843 v 25.582 z"
               id="path1079" />
            <path
               d="m 558.486,128.488 h 68.306 l 282.842,282.843 h -68.305 z"
               id="path1081" />
            <path
               d="m 626.792,128.488 v 42.637 l 282.842,282.843 v -42.637 z"
               id="path1083" />
            <path
               d="M 626.792,171.125 H 473.297 L 756.14,453.968 h 153.494 z"
               id="path1085" />
            <path
               d="M 473.297,171.125 V 68.7958 L 756.14,351.639 v 102.329 z"
               id="path1087" />
            <path
               d="M 473.297,68.7958 H 626.792 L 909.634,351.639 H 756.14 Z"
               id="path1089" />
            <path
               d="M 626.792,68.7958 V 94.3782 L 909.634,377.221 v -25.582 z"
               id="path1091" />
            <path
               d="m 626.792,94.3782 h 17.054 L 926.689,377.221 h -17.055 z"
               id="path1093" />
            <path
               d="M 643.846,94.3782 V 68.7958 L 926.689,351.639 v 25.582 z"
               id="path1095" />
            <path
               d="m 643.846,68.7958 c 0,-4.6901 -1.918,-8.9538 -5.009,-12.045 L 921.679,339.593 c 3.091,3.092 5.01,7.355 5.01,12.046 z"
               id="path1097" />
            <path
               d="m 638.837,56.7508 c -3.092,-3.0912 -7.355,-5.0099 -12.045,-5.0099 L 909.634,334.584 c 4.69,0 8.954,1.918 12.045,5.009 z"
               id="path1099" />
            <path
               d="M 626.792,51.7409 H 473.297 L 756.14,334.584 h 153.494 z"
               id="path1101" />
            <path
               d="m 473.297,51.7409 c -9.38,0 -17.055,7.6747 -17.055,17.0549 L 739.085,351.639 c 0,-9.381 7.675,-17.055 17.055,-17.055 z"
               id="path1103" />
            <path
               d="M 456.242,68.7958 V 171.125 L 739.085,453.968 V 351.639 Z"
               id="path1105" />
            <path
               d="m 456.242,171.125 c 0,4.691 1.919,8.954 5.01,12.046 l 282.843,282.842 c -3.092,-3.091 -5.01,-7.355 -5.01,-12.045 z"
               id="path1107" />
            <path
               d="m 461.252,183.171 c 3.091,3.091 7.355,5.009 12.045,5.009 L 756.14,471.023 c -4.69,0 -8.954,-1.919 -12.045,-5.01 z"
               id="path1109" />
            <path
               d="m 473.297,188.18 h 42.637 L 798.777,471.023 H 756.14 Z"
               id="path1111" />
            <path
               d="m 515.934,188.18 v 17.055 l 282.843,282.843 v -17.055 z"
               id="path1113" />
            <path
               d="m 515.934,205.235 h 68.22 l 282.843,282.843 h -68.22 z"
               id="path1115" />
            <path
               d="M 584.154,205.235 V 188.18 l 282.843,282.843 v 17.055 z"
               id="path1117" />
            <path
               d="m 584.154,188.18 h 42.638 l 282.842,282.843 h -42.637 z"
               id="path1119" />
            <path
               d="m 626.792,188.18 c 9.38,0 16.969,-7.674 16.969,-17.055 l 282.843,282.843 c 0,9.38 -7.59,17.055 -16.97,17.055 z"
               id="path1121" />
            <path
               d="m 643.761,171.125 v -42.637 l 282.843,282.843 v 42.637 z"
               id="path1123" />
            <path
               d="m 643.761,128.488 h 0.085 l 282.843,282.843 h -0.085 z"
               id="path1125" />
            <path
               d="m 643.846,128.488 c 0,-4.817 -2.023,-9.184 -5.263,-12.293 l 282.843,282.843 c 3.239,3.109 5.263,7.476 5.263,12.293 z"
               id="path1127" />
            <path
               d="m 638.583,116.195 c -3.068,-2.945 -7.228,-4.762 -11.791,-4.762 l 282.842,282.843 c 4.564,0 8.723,1.816 11.792,4.762 z"
               id="path1129" />
            <path
               d="m 626.792,111.433 v 0 l 282.842,282.843 v 0 z"
               id="path1131" />
          </g>
          <path
             d="M 626.79151,111.43317 H 558.48648 V 85.850759 l -34.02462,34.109881 34.02462,34.10988 v -25.5824 h 68.30503 v 42.63735 H 473.29705 V 68.795825 h 153.49446 v 25.582421 h 17.05495 V 68.795825 c 0,-9.380218 -7.67472,-17.054942 -17.05495,-17.054942 H 473.29705 c -9.38023,0 -17.05495,7.674724 -17.05495,17.054942 V 171.12547 c 0,9.38021 7.67472,17.05493 17.05495,17.05493 h 42.63735 v 17.05495 h 68.21976 V 188.1804 h 42.63735 c 9.38023,0 16.96967,-7.67472 16.96967,-17.05493 v -42.63735 h 0.0853 c 0,-9.38023 -7.67472,-17.05495 -17.05495,-17.05495 z"
             id="path901"
             style="fill:#000000;fill-opacity:1;stroke-width:8.52746" />
        </g>
      </g>
      <path
         d="M 540.79151,17.43317 H 472.48648 V -8.149241 l -34.02462,34.109881 34.02462,34.10988 v -25.5824 h 68.30503 V 77.12547 H 387.29705 V -25.204175 H 540.79151 V 0.378246 h 17.05495 v -25.582421 c 0,-9.380218 -7.67472,-17.054942 -17.05495,-17.054942 H 387.29705 c -9.38023,0 -17.05495,7.674724 -17.05495,17.054942 V 77.12547 c 0,9.38021 7.67472,17.05493 17.05495,17.05493 h 42.63735 v 17.05495 h 68.21976 V 94.1804 h 42.63735 c 9.38023,0 16.96967,-7.67472 16.96967,-17.05493 V 34.48812 h 0.0853 c 0,-9.38023 -7.67472,-17.05495 -17.05495,-17.05495 z"
         id="path859"
         style="fill:#ffffff;fill-opacity:1;stroke-width:8.52746" />
    </g>
  </g>
</svg>
